<svg xmlns="http://www.w3.org/2000/svg" viewBox="0 0 918.18 776.18"><defs><style>.cls-1{opacity:0.1;}.cls-2{fill:none;stroke:#fff;stroke-miterlimit:10;}</style></defs><title>Asset 5big-background</title><g id="Layer_2" data-name="Layer 2"><g id="Layer_1-2" data-name="Layer 1"><g class="cls-1"><path class="cls-2" d="M.48,702.07s37.42-120.56,122.18-128c122.47-10.79,198.19,201.63,367.12,201.63"/><path class="cls-2" d="M.89,687.69s44.42-130.3,134.85-133.57C257.12,549.73,314,770.36,493.11,775.24"/><path class="cls-2" d="M1.3,673.31S52.64,533,148.81,534.19C269,535.7,307.11,765,496.43,774.79"/><path class="cls-2" d="M1.71,658.93S60,508.28,161.89,514.27c119,7,138.34,245.45,337.87,260.08"/><path class="cls-2" d="M2.12,644.56S67.3,483.27,175,494.34C292.82,506.46,293.36,754.4,503.08,773.91"/><path class="cls-2" d="M2.53,630.18S74.71,458,188.05,474.41c116.74,17,98.44,274.67,318.36,299.05"/><path class="cls-2" d="M2.94,615.8S82.2,432.32,201.13,454.49C316.85,476.05,279.62,743.75,509.74,773"/><path class="cls-2" d="M208.22,80c-31.69,83.7-21.71,312.92,187.12,331.38s283-303.73,503.14-169.06"/><path class="cls-2" d="M238.47,70C210.74,143.26,207.74,371.84,406,392.42c195,19.66,278.89-284.21,490.63-154.74"/><path class="cls-2" d="M268.71,60C245,122.82,228.92,351.31,416.62,373.47,597.74,394.86,691.4,108.79,894.74,233.06"/><path class="cls-2" d="M299,50.07c-19.8,52.31-48.84,280.36,128.3,304.45,167.27,22.75,270.66-245.16,465.61-126.08"/><path class="cls-2" d="M329.21,40.09c-15.84,41.85-57.88,269.38,108.7,295.48,153.4,24,266.54-225.64,453.09-111.75"/><path class="cls-2" d="M359.46,30.12c-11.88,31.39-66.92,258.3,89.09,286.5C588.11,341.85,711,110.5,889.13,219.2"/><path class="cls-2" d="M389.71,20.14c-7.92,20.93-75.93,247.1,69.48,277.53,125.73,26.31,258.3-186.6,428.07-83.1"/><path class="cls-2" d="M420,10.17c-4,10.46-84.9,235.73,49.87,268.55C581.78,306,724,111.65,885.38,210"/><path class="cls-2" d="M450.21.19s-93.79,224.15,30.26,259.58c98.22,28.05,250.07-147.55,403-54.44"/><path class="cls-2" d="M109.44,315.32a6.7,6.7,0,1,1-6.69-6.69A6.69,6.69,0,0,1,109.44,315.32Z"/><circle class="cls-2" cx="541.99" cy="218.67" r="14.96" transform="translate(204.64 695.92) rotate(-76.72)"/><circle class="cls-2" cx="177.51" cy="612.81" r="2.98"/><path class="cls-2" d="M784,252.65a4.52,4.52,0,1,1-4.51-4.51A4.51,4.51,0,0,1,784,252.65Z"/><circle class="cls-2" cx="124.39" cy="287.52" r="14.71" transform="translate(-166.87 172.17) rotate(-45)"/><circle class="cls-2" cx="124.39" cy="287.52" r="11.63" transform="translate(-166.87 172.17) rotate(-45)"/><circle class="cls-2" cx="124.39" cy="287.52" r="8.55"/><path class="cls-2" d="M129.85,287.52a5.46,5.46,0,1,1-5.46-5.47A5.46,5.46,0,0,1,129.85,287.52Z"/><path class="cls-2" d="M126.77,287.52a2.38,2.38,0,1,0-2.38,2.38A2.38,2.38,0,0,0,126.77,287.52Z"/><circle class="cls-2" cx="741.01" cy="284.28" r="20.81" transform="translate(16.02 607.24) rotate(-45)"/><circle class="cls-2" cx="741.01" cy="284.28" r="15" transform="translate(16.02 607.24) rotate(-45)"/><circle class="cls-2" cx="741.01" cy="284.28" r="9.18" transform="translate(16.02 607.24) rotate(-45)"/><circle class="cls-2" cx="741.01" cy="284.28" r="3.37"/><circle class="cls-2" cx="117.41" cy="626.79" r="23.69"/><circle class="cls-2" cx="117.41" cy="626.79" r="18.73"/><circle class="cls-2" cx="117.41" cy="626.79" r="13.76"/><circle class="cls-2" cx="117.41" cy="626.79" r="8.8"/><path class="cls-2" d="M121.25,626.79a3.84,3.84,0,1,0-3.84,3.84A3.84,3.84,0,0,0,121.25,626.79Z"/><path class="cls-2" d="M843,314.7s-130.82,18-126.6,123S865.29,627.48,865.29,627.48Z"/><path class="cls-2" d="M878.37,604.21l-21.92-290S728,331.62,732.16,430.38,878.37,604.21,878.37,604.21Z"/><path class="cls-2" d="M891.45,580.94,869.94,313.8S743.9,330.59,748,423,891.45,580.94,891.45,580.94Z"/><path class="cls-2" d="M904.53,557.67,883.42,313.35S759.78,329.56,763.77,415.67,904.53,557.67,904.53,557.67Z"/><path class="cls-2" d="M896.91,312.9s-121.26,15.63-117.34,95.42,138,126.08,138,126.08Z"/></g></g></g></svg>