<svg xmlns="http://www.w3.org/2000/svg" viewBox="0 0 42.06 30.58"><defs><style>.cls-1{fill:#469dc7;}.cls-2{fill:#edbf83;}</style></defs><title>Asset 1wills-logo-svg</title><g id="Layer_2" data-name="Layer 2"><g id="Layer_1-2" data-name="Layer 1"><path class="cls-1" d="M24.71,12.93c-.74,2.2-2.25,4.21-3.42,6.37-.34.62-.89.38-1.24-.11a18.8,18.8,0,0,1-1.23-2c-.71-1.37-1.27-1.36-2,0-1.83,3.29-3.91,6.45-5.59,9.81C10,29.52,8.32,30.8,5.54,30.4c-1.82-.26-4.36.93-5.3-.68s1.24-3.29,2.13-4.87C6.72,17.1,11.17,9.39,15.59,1.67,16,1,16.17.07,17,0c1.07-.08,1.25,1,1.66,1.71,1.66,2.8,3.28,5.62,4.91,8.43A6.44,6.44,0,0,1,24.71,12.93Z"/><path class="cls-1" d="M39.49,30.25c-2.75.53-4-.67-5.07-2.61-2.55-4.44-4.82-9.06-7.94-13.16C25.34,13,27.19,8.3,29,7.85c.77-.19,1.07.42,1.36.92,3.78,6.51,7.72,12.94,11.24,19.58C43.19,31.31,40.08,29.87,39.49,30.25Z"/><path class="cls-2" d="M20.52,30.36c-1.34-.23-3.59.78-4.37-.53-.88-1.49,1-3,1.84-4.42,2.61-4.61,2.66-4.57,5.32,0a2.53,2.53,0,0,1,.13.22C26.22,30.59,26.83,30.36,20.52,30.36Z"/></g></g></svg>